<svg width="17" height="20" viewBox="0 0 17 20" fill="none" xmlns="http://www.w3.org/2000/svg">
<path d="M13.0446 9.29143C12.961 9.25304 12.8761 9.21608 12.7901 9.1807C12.6404 6.53571 11.1325 5.02145 8.60053 5.00595C8.58906 5.00588 8.57765 5.00588 8.56618 5.00588C7.05175 5.00588 5.79223 5.62547 5.01699 6.75292L6.40948 7.66847C6.98861 6.8263 7.89749 6.64677 8.56684 6.64677C8.57457 6.64677 8.58234 6.64677 8.58999 6.64684C9.42366 6.65193 10.0528 6.88425 10.4599 7.33732C10.7562 7.66716 10.9544 8.12296 11.0525 8.6982C10.3134 8.57779 9.51401 8.54077 8.65945 8.58773C6.2522 8.72064 4.70463 10.0663 4.80857 11.9361C4.86131 12.8846 5.3543 13.7005 6.19665 14.2336C6.90885 14.6842 7.82612 14.9045 8.77944 14.8547C10.0384 14.7885 11.026 14.3281 11.7151 13.4863C12.2383 12.847 12.5693 12.0185 12.7154 10.9747C13.3154 11.3217 13.7601 11.7784 14.0057 12.3274C14.4232 13.2607 14.4476 14.7943 13.142 16.0446C11.9981 17.1399 10.6231 17.6138 8.54511 17.6284C6.24003 17.612 4.49672 16.9035 3.36328 15.5224C2.3019 14.2292 1.75337 12.3613 1.73291 9.9706C1.75337 7.57984 2.3019 5.71194 3.36328 4.41875C4.49672 3.03771 6.24 2.32918 8.54508 2.31276C10.8669 2.3293 12.6406 3.04125 13.8174 4.42895C14.3944 5.10946 14.8295 5.96525 15.1163 6.96307L16.7481 6.54578C16.4005 5.31757 15.8534 4.25922 15.109 3.38148C13.6003 1.60239 11.3938 0.690777 8.55077 0.671875H8.53939C5.70213 0.690712 3.52033 1.6058 2.05459 3.39168C0.750286 4.9809 0.0774871 7.19219 0.0548803 9.96406L0.0548096 9.9706L0.0548803 9.97713C0.0774871 12.749 0.750286 14.9603 2.05459 16.5495C3.52033 18.3354 5.70213 19.2505 8.53939 19.2693H8.55077C11.0732 19.2526 12.8513 18.6196 14.316 17.2169C16.2324 15.3819 16.1747 13.0817 15.5431 11.6696C15.0899 10.6571 14.226 9.83462 13.0446 9.29143ZM8.68932 13.2161C7.63426 13.2731 6.53817 12.8192 6.48412 11.847C6.44406 11.1262 7.01935 10.3218 8.75406 10.226C8.95273 10.215 9.14767 10.2097 9.33918 10.2097C9.96928 10.2097 10.5588 10.2683 11.0947 10.3806C10.8948 12.7733 9.72229 13.1618 8.68932 13.2161Z" fill="#4B4B4B"/>
</svg>
