<svg width="23" height="22" viewBox="0 0 23 22" fill="none" xmlns="http://www.w3.org/2000/svg">
<path d="M20.8046 0.335938H2.59374C1.4758 0.335938 0.570312 1.20382 0.570312 2.27533V19.7299C0.570312 20.8014 1.4758 21.6693 2.59374 21.6693H20.8046C21.9225 21.6693 22.828 20.8014 22.828 19.7299V2.27533C22.828 1.20382 21.9225 0.335938 20.8046 0.335938ZM7.60577 17.7905H4.62122V8.58612H7.60577V17.7905ZM6.08314 7.27024C5.121 7.27024 4.34299 6.5226 4.34299 5.60236C4.34299 4.68212 5.12201 3.93545 6.08314 3.93545C7.04225 3.93545 7.82228 4.68309 7.82228 5.60236C7.82228 6.5226 7.04225 7.27024 6.08314 7.27024ZM18.7852 17.7905H15.8027V13.3144C15.8027 12.2467 15.7824 10.8736 14.2517 10.8736C12.6987 10.8736 12.46 12.0363 12.46 13.2368V17.7905H9.47744V8.58612H12.3406V9.84382H12.3811C12.7797 9.12042 13.7529 8.35727 15.2048 8.35727C18.2267 8.35727 18.7852 10.2637 18.7852 12.7422V17.7905Z" fill="#4B4B4B"/>
</svg>
